<svg id="a865227f-910f-493c-a6fa-82e8453eb543" data-name="Layer 1" xmlns="http://www.w3.org/2000/svg" viewBox="0 0 2048 2048"><defs><style>.ba1e51d9-5d06-4bf9-985e-be4b5aca800e{fill:#546e7a;}</style></defs><path class="ba1e51d9-5d06-4bf9-985e-be4b5aca800e" d="M252.83,1468H1797.94c64.33-36.44,103.65-104.08,100.93-174.77-3.27-84.8-66.49-160-154.94-180.46,1.46-9.65,27.38-203.26-120.82-325.39-109.76-90.45-268.48-103.35-398-31.26-59.54-124.64-192.89-194.45-322.67-171.93-113.75,19.74-207,107.34-237.38,223.08-93.13-40-201.15-21.47-274.34,46.89-69.62,65-96.6,164.8-69.65,257.19-84.81,7.9-154.29,71.68-169.15,154.88C137.35,1347.78,178.44,1430.16,252.83,1468Z"/></svg>